<svg xmlns="http://www.w3.org/2000/svg" width="354.033" height="414.387" viewBox="0 0 354.033 414.387">
  <defs>
    <style>
      .cls-1 {
        fill: rgba(144,144,144,0.25);
      }
    </style>
  </defs>
  <g id="Grupo_224" data-name="Grupo 224" transform="translate(0 0)">
    <g id="Grupo_119" data-name="Grupo 119" transform="translate(0 178.971)">
      <path id="Caminho_95" data-name="Caminho 95" class="cls-1" d="M139.677,365.317,174.928,378.8l43.708-15.6L183.58,349.713Z" transform="translate(-57.27 -143.387)"/>
      <path id="Caminho_96" data-name="Caminho 96" class="cls-1" d="M138.923,322.7l43.728-15.5V251.077l-43.5,15.516Z" transform="translate(-56.96 -102.945)"/>
      <path id="Caminho_97" data-name="Caminho 97" class="cls-1" d="M18.374,114.24l43.9-15.6,35.056,13.491-43.708,15.6Z" transform="translate(-7.533 -40.442)"/>
      <path id="Caminho_98" data-name="Caminho 98" class="cls-1" d="M61.347,0,17.85,15.516l-.231,56.105,43.728-15.5Z" transform="translate(-7.224 0)"/>
      <path id="Caminho_99" data-name="Caminho 99" class="cls-1" d="M157.636,212.164l35.251,13.486,43.708-15.6-35.056-13.49Z" transform="translate(-64.633 -80.592)"/>
      <path id="Caminho_100" data-name="Caminho 100" class="cls-1" d="M156.881,169.544l43.728-15.5V97.923l-43.5,15.516Z" transform="translate(-64.323 -40.15)"/>
      <path id="Caminho_101" data-name="Caminho 101" class="cls-1" d="M.755,268.072l35.251,13.486,43.708-15.6L44.658,252.467Z" transform="translate(-0.309 -103.515)"/>
      <path id="Caminho_102" data-name="Caminho 102" class="cls-1" d="M.23,169.347,0,225.453l43.728-15.5V153.831Z" transform="translate(0 -63.073)"/>
      <path id="Caminho_103" data-name="Caminho 103" class="cls-1" d="M79.365,239.948l43.9-15.6,35.056,13.491-43.708,15.6Z" transform="translate(-32.54 -91.984)"/>
      <path id="Caminho_104" data-name="Caminho 104" class="cls-1" d="M78.61,197.329l43.728-15.5V125.708l-43.5,15.516Z" transform="translate(-32.231 -51.542)"/>
    </g>
    <g id="Grupo_123" data-name="Grupo 123" transform="translate(19.644 0)">
      <path id="Caminho_95-2" data-name="Caminho 95" class="cls-1" d="M139.677,365.317,174.928,378.8l43.708-15.6L183.58,349.713Z" transform="translate(-57.27 -143.387)"/>
      <path id="Caminho_96-2" data-name="Caminho 96" class="cls-1" d="M138.923,322.7l43.728-15.5V251.077l-43.5,15.516Z" transform="translate(-56.96 -102.945)"/>
      <path id="Caminho_97-2" data-name="Caminho 97" class="cls-1" d="M18.374,114.24l43.9-15.6,35.056,13.491-43.708,15.6Z" transform="translate(-7.533 -40.442)"/>
      <path id="Caminho_98-2" data-name="Caminho 98" class="cls-1" d="M61.347,0,17.85,15.516l-.231,56.105,43.728-15.5Z" transform="translate(-7.224 0)"/>
      <path id="Caminho_99-2" data-name="Caminho 99" class="cls-1" d="M157.636,212.164l35.251,13.486,43.708-15.6-35.056-13.49Z" transform="translate(-64.633 -80.592)"/>
      <path id="Caminho_100-2" data-name="Caminho 100" class="cls-1" d="M156.881,169.544l43.728-15.5V97.923l-43.5,15.516Z" transform="translate(-64.323 -40.15)"/>
      <path id="Caminho_101-2" data-name="Caminho 101" class="cls-1" d="M.755,268.072l35.251,13.486,43.708-15.6L44.658,252.467Z" transform="translate(-0.309 -103.515)"/>
      <path id="Caminho_102-2" data-name="Caminho 102" class="cls-1" d="M.23,169.347,0,225.453l43.728-15.5V153.831Z" transform="translate(0 -63.073)"/>
      <path id="Caminho_103-2" data-name="Caminho 103" class="cls-1" d="M79.365,239.948l43.9-15.6,35.056,13.491-43.708,15.6Z" transform="translate(-32.54 -91.984)"/>
      <path id="Caminho_104-2" data-name="Caminho 104" class="cls-1" d="M78.61,197.329l43.728-15.5V125.708l-43.5,15.516Z" transform="translate(-32.231 -51.542)"/>
    </g>
    <g id="Grupo_124" data-name="Grupo 124" transform="translate(182.071 114.278)">
      <path id="Caminho_95-3" data-name="Caminho 95" class="cls-1" d="M139.677,365.317,174.928,378.8l43.708-15.6L183.58,349.713Z" transform="translate(-57.27 -143.387)"/>
      <path id="Caminho_96-3" data-name="Caminho 96" class="cls-1" d="M138.923,322.7l43.728-15.5V251.077l-43.5,15.516Z" transform="translate(-56.96 -102.945)"/>
      <path id="Caminho_97-3" data-name="Caminho 97" class="cls-1" d="M18.374,114.24l43.9-15.6,35.056,13.491-43.708,15.6Z" transform="translate(-7.533 -40.442)"/>
      <path id="Caminho_98-3" data-name="Caminho 98" class="cls-1" d="M61.347,0,17.85,15.516l-.231,56.105,43.728-15.5Z" transform="translate(-7.224 0)"/>
      <path id="Caminho_99-3" data-name="Caminho 99" class="cls-1" d="M157.636,212.164l35.251,13.486,43.708-15.6-35.056-13.49Z" transform="translate(-64.633 -80.592)"/>
      <path id="Caminho_100-3" data-name="Caminho 100" class="cls-1" d="M156.881,169.544l43.728-15.5V97.923l-43.5,15.516Z" transform="translate(-64.323 -40.15)"/>
      <path id="Caminho_101-3" data-name="Caminho 101" class="cls-1" d="M.755,268.072l35.251,13.486,43.708-15.6L44.658,252.467Z" transform="translate(-0.309 -103.515)"/>
      <path id="Caminho_102-3" data-name="Caminho 102" class="cls-1" d="M.23,169.347,0,225.453l43.728-15.5V153.831Z" transform="translate(0 -63.073)"/>
      <path id="Caminho_103-3" data-name="Caminho 103" class="cls-1" d="M79.365,239.948l43.9-15.6,35.056,13.491-43.708,15.6Z" transform="translate(-32.54 -91.984)"/>
      <path id="Caminho_104-3" data-name="Caminho 104" class="cls-1" d="M78.61,197.329l43.728-15.5V125.708l-43.5,15.516Z" transform="translate(-32.231 -51.542)"/>
    </g>
  </g>
</svg>
