<svg xmlns="http://www.w3.org/2000/svg" width="291.469" height="399.021" viewBox="0 0 291.469 399.021">
  <defs>
    <style>
      .cls-1 {
        fill: rgba(144,144,144,0.25);
      }
    </style>
  </defs>
  <g id="Grupo_227" data-name="Grupo 227" transform="translate(-0.001 0)">
    <path id="Caminho_95" data-name="Caminho 95" class="cls-1" d="M139.677,376.162l59.749,22.859,74.084-26.442-59.419-22.866Z" transform="translate(0.001 0)"/>
    <path id="Caminho_96" data-name="Caminho 96" class="cls-1" d="M138.923,372.472,213.039,346.2V251.077l-73.726,26.3Z" transform="translate(0.001 0)"/>
    <path id="Caminho_97" data-name="Caminho 97" class="cls-1" d="M18.374,125.084,92.788,98.636,152.207,121.5,78.123,147.944Z" transform="translate(0.001 0)"/>
    <path id="Caminho_98" data-name="Caminho 98" class="cls-1" d="M91.737,0,18.011,26.3l-.392,95.1L91.737,95.118Z" transform="translate(0.001 0)"/>
    <path id="Caminho_99" data-name="Caminho 99" class="cls-1" d="M157.636,223.008l59.749,22.859,74.084-26.442L232.05,196.56Z" transform="translate(0.001 0)"/>
    <path id="Caminho_100" data-name="Caminho 100" class="cls-1" d="M156.881,219.318,231,193.041V97.923l-73.726,26.3Z" transform="translate(0.001 0)"/>
    <path id="Caminho_101" data-name="Caminho 101" class="cls-1" d="M.755,278.916,60.5,301.775l74.084-26.442L75.169,252.467Z" transform="translate(0.001 0)"/>
    <path id="Caminho_102" data-name="Caminho 102" class="cls-1" d="M.391,180.13,0,275.226l74.118-26.277V153.831Z" transform="translate(0.001 0)"/>
    <path id="Caminho_103" data-name="Caminho 103" class="cls-1" d="M79.365,250.792l74.414-26.448L213.2,247.21l-74.084,26.442Z" transform="translate(0.001 0)"/>
    <path id="Caminho_104" data-name="Caminho 104" class="cls-1" d="M78.61,247.1l74.117-26.277V125.708L79,152.007Z" transform="translate(0.001 0)"/>
  </g>
</svg>
