<svg xmlns="http://www.w3.org/2000/svg" width="291.469" height="399.021" viewBox="0 0 291.469 399.021">
  <defs>
    <style>
      .cls-1 {
        fill: rgba(144,144,144,0.25);
      }
    </style>
  </defs>
  <g id="Grupo_226" data-name="Grupo 226" transform="translate(0 0)">
    <path id="Caminho_95" data-name="Caminho 95" class="cls-1" d="M273.51,376.162l-59.749,22.859-74.084-26.442L199.1,349.713Z" transform="translate(-121.719 0.001)"/>
    <path id="Caminho_96" data-name="Caminho 96" class="cls-1" d="M213.04,372.472,138.923,346.2V251.077l73.726,26.3Z" transform="translate(-60.493 0.001)"/>
    <path id="Caminho_97" data-name="Caminho 97" class="cls-1" d="M152.207,125.084,77.793,98.636,18.374,121.5l74.084,26.442Z" transform="translate(120.887 0.001)"/>
    <path id="Caminho_98" data-name="Caminho 98" class="cls-1" d="M17.619,0,91.345,26.3l.392,95.1L17.619,95.118Z" transform="translate(182.113 0.001)"/>
    <path id="Caminho_99" data-name="Caminho 99" class="cls-1" d="M291.469,223.008,231.72,245.867l-74.084-26.442,59.419-22.865Z" transform="translate(-157.636 0.001)"/>
    <path id="Caminho_100" data-name="Caminho 100" class="cls-1" d="M231,219.318l-74.117-26.277V97.923l73.726,26.3Z" transform="translate(-96.41 0.001)"/>
    <path id="Caminho_101" data-name="Caminho 101" class="cls-1" d="M134.588,278.916,74.839,301.775.755,275.333l59.419-22.866Z" transform="translate(156.125 0.001)"/>
    <path id="Caminho_102" data-name="Caminho 102" class="cls-1" d="M73.727,180.13l.391,95.1L0,248.949V153.831Z" transform="translate(217.351 0.001)"/>
    <path id="Caminho_103" data-name="Caminho 103" class="cls-1" d="M213.2,250.792l-74.414-26.448L79.365,247.21l74.084,26.442Z" transform="translate(-1.094 0.001)"/>
    <path id="Caminho_104" data-name="Caminho 104" class="cls-1" d="M152.727,247.1,78.61,220.826V125.708l73.726,26.3Z" transform="translate(60.132 0.001)"/>
  </g>
</svg>
