<svg xmlns="http://www.w3.org/2000/svg" width="354.033" height="414.387" viewBox="0 0 354.033 414.387">
  <defs>
    <style>
      .cls-1 {
        fill: rgba(144,144,144,0.25);
      }
    </style>
  </defs>
  <g id="Grupo_223" data-name="Grupo 223" transform="translate(0 0)">
    <g id="Grupo_119" data-name="Grupo 119" transform="translate(182.071 178.97)">
      <path id="Caminho_95" data-name="Caminho 95" class="cls-1" d="M218.637,365.317,183.386,378.8l-43.708-15.6,35.056-13.491Z" transform="translate(-129.082 -143.387)"/>
      <path id="Caminho_96" data-name="Caminho 96" class="cls-1" d="M182.65,322.7l-43.728-15.5V251.077l43.5,15.516Z" transform="translate(-92.651 -102.945)"/>
      <path id="Caminho_97" data-name="Caminho 97" class="cls-1" d="M97.334,114.24l-43.9-15.6L18.374,112.127l43.708,15.6Z" transform="translate(63.788 -40.442)"/>
      <path id="Caminho_98" data-name="Caminho 98" class="cls-1" d="M17.619,0l43.5,15.516.231,56.105-43.728-15.5Z" transform="translate(100.22 0)"/>
      <path id="Caminho_99" data-name="Caminho 99" class="cls-1" d="M236.6,212.164,201.344,225.65l-43.708-15.6,35.056-13.49Z" transform="translate(-157.636 -80.592)"/>
      <path id="Caminho_100" data-name="Caminho 100" class="cls-1" d="M200.609,169.544l-43.728-15.5V97.923l43.5,15.516Z" transform="translate(-121.204 -40.15)"/>
      <path id="Caminho_101" data-name="Caminho 101" class="cls-1" d="M79.714,268.072,44.463,281.558.755,265.958l35.056-13.491Z" transform="translate(91.802 -103.515)"/>
      <path id="Caminho_102" data-name="Caminho 102" class="cls-1" d="M43.5,169.347l.231,56.105L0,209.949V153.831Z" transform="translate(128.234 -63.073)"/>
      <path id="Caminho_103" data-name="Caminho 103" class="cls-1" d="M158.324,239.948l-43.9-15.6L79.365,237.835l43.708,15.6Z" transform="translate(-33.186 -91.984)"/>
      <path id="Caminho_104" data-name="Caminho 104" class="cls-1" d="M122.338,197.329l-43.728-15.5V125.708l43.5,15.516Z" transform="translate(3.246 -51.542)"/>
    </g>
    <g id="Grupo_123" data-name="Grupo 123" transform="translate(162.427 0)">
      <path id="Caminho_95-2" data-name="Caminho 95" class="cls-1" d="M218.637,365.317,183.386,378.8l-43.708-15.6,35.056-13.491Z" transform="translate(-129.082 -143.387)"/>
      <path id="Caminho_96-2" data-name="Caminho 96" class="cls-1" d="M182.65,322.7l-43.728-15.5V251.077l43.5,15.516Z" transform="translate(-92.651 -102.945)"/>
      <path id="Caminho_97-2" data-name="Caminho 97" class="cls-1" d="M97.334,114.24l-43.9-15.6L18.374,112.127l43.708,15.6Z" transform="translate(63.788 -40.442)"/>
      <path id="Caminho_98-2" data-name="Caminho 98" class="cls-1" d="M17.619,0l43.5,15.516.231,56.105-43.728-15.5Z" transform="translate(100.22 0)"/>
      <path id="Caminho_99-2" data-name="Caminho 99" class="cls-1" d="M236.6,212.164,201.344,225.65l-43.708-15.6,35.056-13.49Z" transform="translate(-157.636 -80.592)"/>
      <path id="Caminho_100-2" data-name="Caminho 100" class="cls-1" d="M200.609,169.544l-43.728-15.5V97.923l43.5,15.516Z" transform="translate(-121.204 -40.15)"/>
      <path id="Caminho_101-2" data-name="Caminho 101" class="cls-1" d="M79.714,268.072,44.463,281.558.755,265.958l35.056-13.491Z" transform="translate(91.802 -103.515)"/>
      <path id="Caminho_102-2" data-name="Caminho 102" class="cls-1" d="M43.5,169.347l.231,56.105L0,209.949V153.831Z" transform="translate(128.234 -63.073)"/>
      <path id="Caminho_103-2" data-name="Caminho 103" class="cls-1" d="M158.324,239.948l-43.9-15.6L79.365,237.835l43.708,15.6Z" transform="translate(-33.186 -91.984)"/>
      <path id="Caminho_104-2" data-name="Caminho 104" class="cls-1" d="M122.338,197.329l-43.728-15.5V125.708l43.5,15.516Z" transform="translate(3.246 -51.542)"/>
    </g>
    <g id="Grupo_124" data-name="Grupo 124" transform="translate(0 114.278)">
      <path id="Caminho_95-3" data-name="Caminho 95" class="cls-1" d="M218.637,365.317,183.386,378.8l-43.708-15.6,35.056-13.491Z" transform="translate(-129.082 -143.387)"/>
      <path id="Caminho_96-3" data-name="Caminho 96" class="cls-1" d="M182.65,322.7l-43.728-15.5V251.077l43.5,15.516Z" transform="translate(-92.651 -102.945)"/>
      <path id="Caminho_97-3" data-name="Caminho 97" class="cls-1" d="M97.334,114.24l-43.9-15.6L18.374,112.127l43.708,15.6Z" transform="translate(63.788 -40.442)"/>
      <path id="Caminho_98-3" data-name="Caminho 98" class="cls-1" d="M17.619,0l43.5,15.516.231,56.105-43.728-15.5Z" transform="translate(100.22 0)"/>
      <path id="Caminho_99-3" data-name="Caminho 99" class="cls-1" d="M236.6,212.164,201.344,225.65l-43.708-15.6,35.056-13.49Z" transform="translate(-157.636 -80.592)"/>
      <path id="Caminho_100-3" data-name="Caminho 100" class="cls-1" d="M200.609,169.544l-43.728-15.5V97.923l43.5,15.516Z" transform="translate(-121.204 -40.15)"/>
      <path id="Caminho_101-3" data-name="Caminho 101" class="cls-1" d="M79.714,268.072,44.463,281.558.755,265.958l35.056-13.491Z" transform="translate(91.802 -103.515)"/>
      <path id="Caminho_102-3" data-name="Caminho 102" class="cls-1" d="M43.5,169.347l.231,56.105L0,209.949V153.831Z" transform="translate(128.234 -63.073)"/>
      <path id="Caminho_103-3" data-name="Caminho 103" class="cls-1" d="M158.324,239.948l-43.9-15.6L79.365,237.835l43.708,15.6Z" transform="translate(-33.186 -91.984)"/>
      <path id="Caminho_104-3" data-name="Caminho 104" class="cls-1" d="M122.338,197.329l-43.728-15.5V125.708l43.5,15.516Z" transform="translate(3.246 -51.542)"/>
    </g>
  </g>
</svg>
